<?xml version="1.0" encoding="UTF-8" standalone="no"?>

<svg
   xmlns="http://www.w3.org/2000/svg"
   width="64"
   height="64"
   version="1.1">
  <g>
    <path
       style="fill:#b7c8c5"
       d="m 36,64 0,-28 28,0 0,28 z" />
    <path
       style="fill:#b7bec8"
       d="M 36,36 36,8 64,8 64,36 z" />
    <path
       style="fill:#c8b7b7"
       d="m 8,64 0,-28 28,0 0,28 z" />
    <path
       style="fill:#beb7c8"
       d="M 8,36 8,8 36,8 36,36 z" />
    <path
       style="fill:#ffffff"
       d="m 16,16 0,12 12,0 0,-4 -8,0 0,-8 z" />
    <path
       style="fill:#ffffff"
       d="m 44,44.0002 0,12 12,0 0,-4 -8,0 0,-8 z" />
    <path
       style="fill:#ffffff"
       d="m 16,44 12,0 0,4 -4,0 0,8 -4,0 0,-8 -4,0 z" />
    <path
       style="fill:#ffffff"
       d="m 48,16 0,12 4,0 0,-12 z" />
    <path
       style="fill:#dbdee3"
       d="M 64,8 56,0 28,0 36,8 z" />
    <path
       style="fill:#98a4b2"
       d="m 36,12 4,0 0,20 -4,0 z" />
    <path
       style="fill:#98a4b2"
       d="m 60,12 4,0 0,20 -4,0 z" />
    <path
       style="fill:#6c798c"
       d="m 36,8 28,0 0,4 -28,0 z" />
    <path
       style="fill:#808fa6"
       d="m 36,32 28,0 0,4 -28,0 z" />
    <path
       style="fill:#a498b2"
       d="m 8,12 4,0 0,20 -4,0 z" />
    <path
       style="fill:#a498b2"
       d="m 32,12 4,0 0,20 -4,0 z" />
    <path
       style="fill:#7a6c8c"
       d="M 8,12 36,12 36,8 8,8 z" />
    <path
       style="fill:#8f80a6"
       d="m 8,32 28,0 0,4 -28,0 z" />
    <path
       style="fill:#dedbe3"
       d="M 36,8 28,0 0,0 0,28 8,36 8,8 z" />
    <path
       style="fill:#beb7c8"
       d="M 0,0 8,8 8,36 0,28 z" />
    <path
       style="fill:#b29898"
       d="m 8,40 4,0 0,20 -4,0 z" />
    <path
       style="fill:#b29898"
       d="m 32,40 4,0 0,20 -4,0 z" />
    <path
       style="fill:#c8b7b7"
       d="M 8,64 0,56 0,28 8,36 z" />
    <path
       style="fill:#8c6c6c"
       d="m 8,36 28,0 0,4 -28,0 z" />
    <path
       style="fill:#8c6c6c"
       d="m 8,60 28,0 0,4 -28,0 z" />
    <path
       style="fill:#98b2ad"
       d="m 36,40 4,0 0,20 -4,0 z" />
    <path
       style="fill:#98b2ad"
       d="m 60,40 4,0 0,20 -4,0 z" />
    <path
       style="fill:#6c8c86"
       d="m 36,36 28,0 0,4 -28,0 z" />
    <path
       style="fill:#6c8c86"
       d="m 36,60 28,0 0,4 -28,0 z" />
    <path
       style="fill:#afa3bf"
       d="M 8,12 0,4 0,0 8,8 z" />
    <path
       style="fill:#afa3bf"
       d="m 8,32 -8,-8 0,4 8,8 z" />
    <path
       style="fill:#b29898"
       d="m 8,36 -8,-8 0,4 8,8 z" />
    <path
       style="fill:#b29898"
       d="m 8,60 -8,-8 0,4 8,8 z" />
  </g>
</svg>
