<?xml version="1.0" encoding="UTF-8" standalone="no"?>

<svg xmlns="http://www.w3.org/2000/svg" width="64" height="64" version="1.1">
  <path
     d="m 36,64 0,-28 28,0 0,28 z"
     style="fill:#dfa0d4" />
  <path
     d="M 36,36 36,8 64,8 64,36 z"
     style="fill:#a0b6df" />
  <path
     d="m 8,64 0,-28 28,0 0,28 z"
     style="fill:#dfa0a0" />
  <path
     d="M 8,36 8,8 36,8 36,36 z"
     style="fill:#bea0df" />
  <path
     d="M 64,8 56,0 28,0 36,8 z"
     style="fill:#b8c9e8" />
  <path
     d="m 36,12 4,0 0,20 -4,0 z"
     style="fill:#7898d2" />
  <path
     d="m 60,12 4,0 0,20 -4,0 z"
     style="fill:#7898d2" />
  <path
     d="m 36,8 28,0 0,4 -28,0 z"
     style="fill:#5d83c9" />
  <path
     d="m 36,32 28,0 0,4 -28,0 z"
     style="fill:#5d83c9" />
  <path
     d="m 8,12 4,0 0,20 -4,0 z"
     style="fill:#a278d2" />
  <path
     d="m 32,12 4,0 0,20 -4,0 z"
     style="fill:#a278d2" />
  <path
     d="M 8,12 36,12 36,8 8,8 z"
     style="fill:#905dc9" />
  <path
     d="m 8,32 28,0 0,4 -28,0 z"
     style="fill:#905dc9" />
  <path
     d="M 36,8 28,0 0,0 8,8 z"
     style="fill:#cfb8e8" />
  <path
     d="M 0,0 8,8 8,36 0,28 z"
     style="fill:#c2a6e2" />
  <path
     d="m 8,40 4,0 0,20 -4,0 z"
     style="fill:#d27878" />
  <path
     d="m 32,40 4,0 0,20 -4,0 z"
     style="fill:#d27878" />
  <path
     d="M 8,64 0,56 0,28 8,36 z"
     style="fill:#e2a6a6" />
  <path
     d="m 8,36 28,0 0,4 -28,0 z"
     style="fill:#ba3e3e" />
  <path
     d="m 8,60 28,0 0,4 -28,0 z"
     style="fill:#ba3e3e" />
  <path
     d="m 36,40 4,0 0,20 -4,0 z"
     style="fill:#d278c2" />
  <path
     d="m 60,40 4,0 0,20 -4,0 z"
     style="fill:#d278c2" />
  <path
     d="m 36,36 28,0 0,4 -28,0 z"
     style="fill:#ba3ea4" />
  <path
     d="m 36,60 28,0 0,4 -28,0 z"
     style="fill:#ba3ea4" />
  <path
     d="M 8,12 0,4 0,0 8,8 z"
     style="fill:#a278d2" />
  <path
     d="m 8,32 -8,-8 0,4 8,8 z"
     style="fill:#a278d2" />
  <path
     d="m 8,36 -8,-8 0,4 8,8 z"
     style="fill:#d27878" />
  <path
     d="m 8,60 -8,-8 0,4 8,8 z"
     style="fill:#d27878" />
  <path
     d="m 16,16 0,12 12,0 0,-4 -8,0 0,-8 z"
     style="fill:#ffffff" />
  <path
     d="m 48,16 0,12 4,0 0,-12 z"
     style="fill:#ffffff" />
  <path
     d="m 16,44 12,0 0,4 -4,0 0,8 -4,0 0,-8 -4,0 z"
     style="fill:#ffffff" />
  <path
     d="m 44,44.0002 0,12 12,0 0,-4 -8,0 0,-8 z"
     style="fill:#ffffff" />
</svg>
