<?xml version="1.0" encoding="UTF-8" standalone="no"?>

<svg xmlns="http://www.w3.org/2000/svg" width="32" height="32" version="1.1">
  <path
     d="m 18,32 0,-14 14,0 0,14 z"
     style="fill:#dfa0d4" />
  <path
     d="M 18,18 18,4 32,4 32,18 z"
     style="fill:#a0b6df" />
  <path
     d="m 4,32 0,-14 14,0 0,14 z"
     style="fill:#dfa0a0" />
  <path
     d="M 4,18 4,4 18,4 18,18 z"
     style="fill:#bea0df" />
  <path
     d="M 32,4 28,0 14,0 18,4 z"
     style="fill:#b8c9e8" />
  <path
     d="m 18,6 2,0 0,10 -2,0 z"
     style="fill:#7898d2" />
  <path
     d="m 30,6 2,0 0,10 -2,0 z"
     style="fill:#7898d2" />
  <path
     d="m 18,4 14,0 0,2 -14,0 z"
     style="fill:#5d83c9" />
  <path
     d="m 18,16 14,0 0,2 -14,0 z"
     style="fill:#5d83c9" />
  <path
     d="m 4,6 2,0 0,10 -2,0 z"
     style="fill:#a278d2" />
  <path
     d="m 16,6 2,0 0,10 -2,0 z"
     style="fill:#a278d2" />
  <path
     d="M 4,6 18,6 18,4 4,4 z"
     style="fill:#905dc9" />
  <path
     d="m 4,16 14,0 0,2 -14,0 z"
     style="fill:#905dc9" />
  <path
     d="M 18,4 14,0 0,0 4,4 z"
     style="fill:#cfb8e8" />
  <path
     d="M 0,0 4,4 4,18 0,14 z"
     style="fill:#c2a6e2" />
  <path
     d="m 4,20 2,0 0,10 -2,0 z"
     style="fill:#d27878" />
  <path
     d="m 16,20 2,0 0,10 -2,0 z"
     style="fill:#d27878" />
  <path
     d="M 4,32 0,28 0,14 4,18 z"
     style="fill:#e2a6a6" />
  <path
     d="m 4,18 14,0 0,2 -14,0 z"
     style="fill:#ba3e3e" />
  <path
     d="m 4,30 14,0 0,2 -14,0 z"
     style="fill:#ba3e3e" />
  <path
     d="m 18,20 2,0 0,10 -2,0 z"
     style="fill:#d278c2" />
  <path
     d="m 30,20 2,0 0,10 -2,0 z"
     style="fill:#d278c2" />
  <path
     d="m 18,18 14,0 0,2 -14,0 z"
     style="fill:#ba3ea4" />
  <path
     d="m 18,30 14,0 0,2 -14,0 z"
     style="fill:#ba3ea4" />
  <path
     d="M 4,6 0,2 0,0 4,4 z"
     style="fill:#a278d2" />
  <path
     d="m 4,16 -4,-4 0,2 4,4 z"
     style="fill:#a278d2" />
  <path
     d="m 4,18 -4,-4 0,2 4,4 z"
     style="fill:#d27878" />
  <path
     d="m 4,30 -4,-4 0,2 4,4 z"
     style="fill:#d27878" />
  <path
     d="m 8,8 0,6 6,0 0,-2 -4,0 0,-4 z"
     style="fill:#ffffff" />
  <path
     d="m 24,8 0,6 2,0 0,-6 z"
     style="fill:#ffffff" />
  <path
     d="m 8,22 6,0 0,2 -2,0 0,4 -2,0 0,-4 -2,0 z"
     style="fill:#ffffff" />
  <path
     d="m 22,22 0,6 6,0 0,-2 -4,0 0,-4 z"
     style="fill:#ffffff" />
</svg>